<?xml version="1.0" encoding="UTF-8" standalone="no"?>
<!-- Created with Inkscape (http://www.inkscape.org/) -->

<svg
   id="svg3943"
   width="255.99983"
   height="256.00024"
   version="1.1"
   sodipodi:docname="helia-2.svg"
   inkscape:version="1.1.2 (0a00cf5339, 2022-02-04)"
   xmlns:inkscape="http://www.inkscape.org/namespaces/inkscape"
   xmlns:sodipodi="http://sodipodi.sourceforge.net/DTD/sodipodi-0.dtd"
   xmlns:xlink="http://www.w3.org/1999/xlink"
   xmlns="http://www.w3.org/2000/svg"
   xmlns:svg="http://www.w3.org/2000/svg"
   xmlns:rdf="http://www.w3.org/1999/02/22-rdf-syntax-ns#"
   xmlns:cc="http://creativecommons.org/ns#"
   xmlns:dc="http://purl.org/dc/elements/1.1/">
  <sodipodi:namedview
     id="namedview74"
     pagecolor="#ffffff"
     bordercolor="#666666"
     borderopacity="1.0"
     inkscape:pageshadow="2"
     inkscape:pageopacity="0.0"
     inkscape:pagecheckerboard="0"
     showgrid="false"
     inkscape:zoom="2.0433423"
     inkscape:cx="24.959108"
     inkscape:cy="155.13799"
     inkscape:window-width="1317"
     inkscape:window-height="890"
     inkscape:window-x="435"
     inkscape:window-y="126"
     inkscape:window-maximized="0"
     inkscape:current-layer="svg3943" />
  <defs
     id="defs3945">
    <radialGradient
       id="radialGradient3011"
       cx="17.059"
       cy="41.058998"
       r="5.7385001"
       fx="14.688"
       fy="37.456001"
       gradientTransform="matrix(0.95844,-0.17154,0.033651,0.91199,5.83,5.1404)"
       gradientUnits="userSpaceOnUse">
      <stop
         id="stop7069"
         style="stop-color:#fff"
         offset="0" />
      <stop
         id="stop7071"
         style="stop-color:#fff;stop-opacity:0"
         offset="1" />
    </radialGradient>
    <linearGradient
       id="linearGradient3014"
       x1="28.503"
       x2="26.257"
       y1="137.53999"
       y2="125.39"
       gradientTransform="matrix(0.32287,0,0,0.32433,19.695,-29.784)"
       gradientUnits="userSpaceOnUse"
       xlink:href="#linearGradient2372" />
    <linearGradient
       id="linearGradient2372">
      <stop
         id="stop2374"
         style="stop-color:#fff"
         offset="0" />
      <stop
         id="stop2376"
         style="stop-color:#fff;stop-opacity:.34483"
         offset="1" />
    </linearGradient>
    <radialGradient
       id="radialGradient3017"
       cx="17.059"
       cy="41.058998"
       r="5.7385001"
       fx="14.758"
       fy="37.841"
       gradientTransform="matrix(1.0092,-0.16363,0.022027,0.94329,23.015,0.96491)"
       gradientUnits="userSpaceOnUse">
      <stop
         id="stop3670"
         style="stop-color:#fff"
         offset="0" />
      <stop
         id="stop3672"
         style="stop-color:#fff;stop-opacity:0"
         offset="1" />
    </radialGradient>
    <linearGradient
       id="linearGradient3020"
       x1="28.739"
       x2="26.257"
       y1="144.12"
       y2="125.39"
       gradientTransform="matrix(0.44564,0,0,0.32433,34.629,-32.463)"
       gradientUnits="userSpaceOnUse"
       xlink:href="#linearGradient2372" />
    <radialGradient
       id="radialGradient3024"
       cx="605.71002"
       cy="486.64999"
       r="117.14"
       gradientTransform="matrix(0.047724,0,0,0.02325,0.76067,23.481)"
       gradientUnits="userSpaceOnUse"
       xlink:href="#linearGradient5060" />
    <linearGradient
       id="linearGradient5060">
      <stop
         id="stop5062"
         offset="0" />
      <stop
         id="stop5064"
         style="stop-opacity:0"
         offset="1" />
    </linearGradient>
    <linearGradient
       id="linearGradient3027"
       x1="16.723"
       x2="16.723"
       y1="3"
       y2="35.055"
       gradientUnits="userSpaceOnUse">
      <stop
         id="stop3463"
         style="stop-color:#fff"
         offset="0" />
      <stop
         id="stop3465"
         style="stop-color:#fff;stop-opacity:0"
         offset="1" />
    </linearGradient>
    <radialGradient
       id="radialGradient3036"
       cx="33.966999"
       cy="35.737"
       r="86.708"
       gradientTransform="matrix(0.79799,0,0,0.83887,-1.9637,-0.43106)"
       gradientUnits="userSpaceOnUse"
       xlink:href="#linearGradient259" />
    <linearGradient
       id="linearGradient259">
      <stop
         id="stop260"
         style="stop-color:#828282"
         offset="0" />
      <stop
         id="stop261"
         style="stop-color:#434343"
         offset="1" />
    </linearGradient>
    <linearGradient
       id="linearGradient3038"
       x1="33"
       x2="33"
       y1="36.014999"
       y2="2"
       gradientUnits="userSpaceOnUse"
       xlink:href="#linearGradient3582" />
    <linearGradient
       id="linearGradient3582">
      <stop
         id="stop3584"
         style="stop-color:#333"
         offset="0" />
      <stop
         id="stop3586"
         style="stop-color:#5a5a5a"
         offset="1" />
    </linearGradient>
    <radialGradient
       id="radialGradient3042"
       cx="33.966999"
       cy="35.737"
       r="86.708"
       gradientTransform="matrix(0.79794,0,0,0.83941,-1.9632,-0.43249)"
       gradientUnits="userSpaceOnUse"
       xlink:href="#linearGradient259" />
    <linearGradient
       id="linearGradient3044"
       x1="6"
       x2="6"
       y1="36"
       y2="1.9852999"
       gradientUnits="userSpaceOnUse"
       xlink:href="#linearGradient3582" />
    <linearGradient
       id="linearGradient3049"
       x1="12.872"
       x2="12.872"
       y1="0.62146002"
       y2="22.487"
       gradientTransform="matrix(1.6465,0,0,1.5556,-2.2509,1.0176)"
       gradientUnits="userSpaceOnUse">
      <stop
         id="stop3618"
         style="stop-color:#ffffff"
         offset="0" />
      <stop
         id="stop3270"
         style="stop-color:#0000ff"
         offset=".5" />
      <stop
         id="stop3620"
         style="stop-color:#ffffff"
         offset="1" />
    </linearGradient>
    <linearGradient
       id="linearGradient3051"
       x1="12.248"
       x2="12.248"
       y1="34.993"
       y2="1.9999"
       gradientUnits="userSpaceOnUse">
      <stop
         id="stop3624"
         style="stop-color:#0000ff"
         offset="0" />
      <stop
         id="stop3626"
         style="stop-color:#ffffff"
         offset="1" />
    </linearGradient>
    <radialGradient
       id="radialGradient3054"
       cx="605.71002"
       cy="486.64999"
       r="117.14"
       gradientTransform="matrix(-0.047724,0,0,0.02325,35.239,23.481)"
       gradientUnits="userSpaceOnUse"
       xlink:href="#linearGradient5060" />
    <linearGradient
       id="linearGradient3941"
       x1="302.85999"
       x2="302.85999"
       y1="366.64999"
       y2="609.51001"
       gradientTransform="matrix(0.047724,0,0,0.02325,0.75128,23.481)"
       gradientUnits="userSpaceOnUse">
      <stop
         id="stop5050"
         style="stop-opacity:0"
         offset="0" />
      <stop
         id="stop5056"
         offset=".5" />
      <stop
         id="stop5052"
         style="stop-opacity:0"
         offset="1" />
    </linearGradient>
  </defs>
  <metadata
     id="metadata3948">
    <rdf:RDF>
      <cc:Work
         rdf:about="">
        <dc:format>image/svg+xml</dc:format>
        <dc:type
           rdf:resource="http://purl.org/dc/dcmitype/StillImage" />
      </cc:Work>
    </rdf:RDF>
  </metadata>
  <g
     id="layer1"
     transform="matrix(5.3935766,0,0,5.818169,-2.8947326,-11.636338)">
    <rect
       id="rect4173"
       x="6.4780998"
       y="32.006001"
       width="23.044001"
       height="5.6464"
       style="opacity:0.40206;fill:url(#linearGradient3941)" />
    <path
       id="path5018"
       d="m 6.4781,32.006 v 5.6461 c -2.4577,0.01063 -5.9414,-1.265 -5.9414,-2.8234 0,-1.5584 2.7426,-2.8227 5.9414,-2.8227 z"
       style="opacity:0.40206;fill:url(#radialGradient3054)" />
    <rect
       id="rect3457"
       x="8.5072002"
       y="2.5"
       width="18.986"
       height="32.985001"
       rx="0"
       ry="0"
       style="fill:url(#linearGradient3049);stroke:url(#linearGradient3051);stroke-linejoin:round" />
    <path
       id="path3460"
       d="m 9.4717,19.5 h 17.003"
       style="fill:none;stroke:#333333;stroke-linecap:square;stroke-linejoin:round" />
    <path
       id="path3360"
       d="M 9.5,20.5 H 26.495"
       style="display:block;opacity:0.36638;fill:none;stroke:#ffffff;stroke-linecap:square;stroke-linejoin:round" />
    <path
       id="path3385"
       d="m 8.5,2.5075 v 32.992 H 3.7181 C 3.30875,35.10886 3.620025,34.3333 3.52276,33.7802 V 2.6972 L 3.579847,2.56303 3.718097,2.507627 h 4.7819 z"
       style="display:block;fill:url(#radialGradient3042);stroke:url(#linearGradient3044);stroke-linejoin:round" />
    <rect
       id="rect3480"
       x="5"
       y="4"
       width="2"
       height="2"
       style="fill:#ffffff" />
    <path
       id="rect15391"
       d="M 27.5,35.478 V 2.507 h 4.802 c 0.23608,0 0.19535,1.0357 0.19535,1.7182 0,10.354 2e-6,20.709 2e-6,31.063 -0.40255,0.39701 -1.2018,0.09512 -1.7717,0.18945 h -3.2257 z"
       style="display:block;fill:url(#radialGradient3036);stroke:url(#linearGradient3038);stroke-linejoin:round" />
    <rect
       id="rect2917"
       x="29"
       y="32"
       width="2"
       height="2"
       style="fill:#ffffff" />
    <rect
       id="rect2915"
       x="29"
       y="28"
       width="2"
       height="2"
       style="fill:#ffffff" />
    <rect
       id="rect2913"
       x="29"
       y="24"
       width="2"
       height="2"
       style="fill:#ffffff" />
    <rect
       id="rect2911"
       x="29"
       y="20"
       width="2"
       height="2"
       style="fill:#ffffff" />
    <rect
       id="rect2909"
       x="29"
       y="8"
       width="2"
       height="2"
       style="fill:#ffffff" />
    <rect
       id="rect2907"
       x="29"
       y="4"
       width="2"
       height="2"
       style="fill:#ffffff" />
    <rect
       id="rect2689"
       x="4.5"
       y="3.5"
       width="27"
       height="31"
       rx="0"
       ry="0"
       style="opacity:0.4;fill:none;stroke:url(#linearGradient3027);stroke-linecap:square" />
    <path
       id="path5058"
       d="m 29.522,32.006 v 5.6461 c 2.4577,0.01063 5.9414,-1.265 5.9414,-2.8234 0,-1.5584 -2.7426,-2.8227 -5.9414,-2.8227 z"
       style="opacity:0.40206;fill:url(#radialGradient3024)" />
    <path
       id="path3406"
       d="m 45.746,7.493 c -6.0073,0.96067 -12.031,1.8234 -18.034,2.8086 -1.6338,0.81988 -1.0491,2.9022 -1.1544,4.371 -1e-6,6.3551 0,12.71 0,19.065 -4.1947,-0.9349 -9.0358,2.3378 -9.0717,6.7834 -0.18886,2.8549 2.5657,5.2205 5.3367,4.959 3.7563,-0.19264 7.1948,-3.8314 6.7926,-7.7167 -1e-6,-6.3558 0,-13.702 0,-20.058 4.9541,-0.71434 9.8975,-1.5 14.851,-2.2157 -2e-6,4.8995 0,10.789 0,15.689 -4.0196,-1.158 -8.8557,1.4966 -9.5218,5.7402 -0.55693,2.5008 1.1906,5.0144 3.5777,5.7291 4.4683,1.4647 9.4663,-2.8552 8.9393,-7.4749 -0.01247,-8.6651 0.03763,-17.33 0,-25.995 -0.105,-0.86129 -0.7779,-1.7287 -1.716,-1.6852 z"
       style="fill:#4d4d4d;stroke:#333333;stroke-linecap:round;stroke-linejoin:round" />
    <path
       id="path3996"
       d="m 44.985,31.631 0.05939,-16.522 c 0.62592,-0.08136 0.0961,-0.01312 0.94013,-0.13496 0.01157,3.0861 0.01586,5.1647 0.01586,16.82 0,0.08673 -0.36454,-0.04353 -1.0154,-0.16334 h 3e-6 z"
       style="opacity:0.4;fill:url(#linearGradient3020);fill-rule:evenodd" />
    <path
       id="path2716"
       d="m 46.925,35.918 c 0,2.9448 -2.5927,5.7733 -5.7911,6.3178 -3.1984,0.5445 -5.7911,-1.4015 -5.7911,-4.3463 0,-2.9448 2.5927,-5.7733 5.7911,-6.3178 3.1984,-0.5445 5.7911,1.4015 5.7911,4.3463 z"
       style="opacity:0.6;fill:url(#radialGradient3017)" />
    <path
       id="path2720"
       d="M 27.062,34.46 V 11.989 c 0,0 0.11698,-1.2468 1.1754,-1.2511 0.09195,0.15926 17.856,-2.8821 17.856,-2.8821 0,0 0.6798,1.1032 -7.0024,2.2067 -10.934,1.5706 -11.029,1.6332 -11.029,2.7619 v 22.165 c -0.2351,-0.20062 -0.52847,-0.40924 -1,-0.52906 z"
       style="opacity:0.4;fill:url(#linearGradient3014);fill-rule:evenodd" />
    <path
       id="path2712"
       d="m 29.062,38.706 c 0,2.8483 -2.4624,5.5841 -5.5,6.1106 -3.0376,0.52656 -5.5,-1.3555 -5.5,-4.2038 0,-2.8483 2.4624,-5.5841 5.5,-6.1107 3.0376,-0.52656 5.5,1.3555 5.5,4.2038 z"
       style="opacity:0.6;fill:url(#radialGradient3011)" />
    <rect
       id="rect2893"
       x="5"
       y="8"
       width="2"
       height="2"
       style="fill:#ffffff" />
    <rect
       id="rect2895"
       x="5"
       y="12"
       width="2"
       height="2"
       style="fill:#ffffff" />
    <rect
       id="rect2897"
       x="5"
       y="16"
       width="2"
       height="2"
       style="fill:#ffffff" />
    <rect
       id="rect2899"
       x="5"
       y="20"
       width="2"
       height="2"
       style="fill:#ffffff" />
    <rect
       id="rect2901"
       x="5"
       y="24"
       width="2"
       height="2"
       style="fill:#ffffff" />
    <rect
       id="rect2903"
       x="5"
       y="28"
       width="2"
       height="2"
       style="fill:#ffffff" />
    <rect
       id="rect2905"
       x="5"
       y="32"
       width="2"
       height="2"
       style="fill:#ffffff" />
  </g>
</svg>
